<svg width="165" height="46" viewBox="0 0 165 46" fill="none" xmlns="http://www.w3.org/2000/svg">
  <path d="M22.605 19.3041C22.605 22.324 21.4256 25.0552 19.4958 27.0849C17.5743 25.0552 16.3867 22.324 16.3867 19.3041C16.3867 16.2841 17.566 13.553 19.4958 11.5232C21.4256 13.553 22.605 16.2924 22.605 19.3041Z" fill="#0BAE4D"/>
  <path d="M22.3413 21.7548C21.896 23.7928 20.8899 25.6246 19.4961 27.085C18.1106 25.6246 17.1045 23.7928 16.6592 21.7548C17.5663 21.5155 18.5147 21.3917 19.4961 21.3917C20.4858 21.3917 21.4342 21.5155 22.3413 21.7548Z" fill="#6CBD45"/>
  <path d="M30.8022 32.6959C30.8022 38.9421 25.7386 44.0001 19.4956 44.0001C13.2527 44.0001 8.19727 38.9421 8.19727 32.6959C8.19727 31.8543 8.28798 31.0374 8.46942 30.2453C9.37658 30.4846 10.325 30.6083 11.3064 30.6083C14.5309 30.6083 17.4504 29.2552 19.5039 27.0851C21.5574 29.2634 24.4768 30.6083 27.7014 30.6083C28.691 30.6083 29.6394 30.4846 30.5466 30.2453C30.7115 31.0374 30.8022 31.8543 30.8022 32.6959Z" fill="#FFDE16"/>
  <path d="M19.4954 27.0849C17.4419 29.2632 14.5225 30.6082 11.2979 30.6082C10.3165 30.6082 9.3681 30.4844 8.46094 30.2451C9.37635 26.0948 12.5679 22.8025 16.6584 21.7546C17.1038 23.7927 18.1099 25.6327 19.4954 27.0849Z" fill="#0054A6"/>
  <path d="M16.3868 19.3041C16.3868 20.1458 16.4775 20.9626 16.6589 21.7547C12.5684 22.8026 9.37682 26.1031 8.46141 30.2452C3.59569 28.991 0 24.5684 0 19.3041C0 13.058 5.0554 8 11.2984 8C14.5229 8 17.4424 9.3532 19.4959 11.5233C17.5743 13.5531 16.3868 16.2925 16.3868 19.3041Z" fill="#213F9A"/>
  <path d="M30.5388 30.2536C29.6316 30.4928 28.6832 30.6166 27.6936 30.6166C24.469 30.6166 21.5496 29.2634 19.4961 27.0933C20.8898 25.6329 21.8877 23.8011 22.3413 21.7631C26.4235 22.8192 29.6234 26.1032 30.5388 30.2536Z" fill="#6EB544"/>
  <path d="M38.9998 19.3041C38.9998 24.5684 35.4041 28.991 30.5384 30.2452C29.623 26.0949 26.4314 22.8109 22.3409 21.7547C22.5141 20.9626 22.613 20.1458 22.613 19.3041C22.613 16.2842 21.4337 13.5531 19.5039 11.5233C21.5574 9.34494 24.4768 8 27.7014 8C33.9361 8 38.9998 13.058 38.9998 19.3041Z" fill="#0DA14B"/>
  <path d="M6.51562 14.5597L16.0986 17.6869L11.5463 19.5434L9.69071 24.0486L6.51562 14.5597Z" fill="white"/>
  <path d="M29.3102 24.3044L27.4547 19.7992L22.9023 17.9427L32.4853 14.8073L29.3102 24.3044Z" fill="white"/>
  <path d="M14.9844 31.2931L19.479 33.1743L24.0066 31.2683L19.446 40.2621L14.9844 31.2931Z" fill="white"/>
  <path d="M58.078 28.6285H51V7.61914H58.078C59.8951 7.61914 61.3817 7.80901 62.5627 8.18875C63.7355 8.56848 64.6523 9.19588 65.2965 10.0709C65.949 10.946 66.395 11.9779 66.6427 13.1584C66.8905 14.3388 67.0144 15.8826 67.0144 17.773C67.0144 19.6717 66.8988 21.2402 66.6758 22.4867C66.4528 23.7332 66.0233 24.8477 65.3956 25.8218C64.7679 26.8041 63.8512 27.5141 62.6618 27.9516C61.456 28.4056 59.9281 28.6285 58.078 28.6285ZM62.5545 20.2826C62.5958 19.6221 62.6123 18.7141 62.6123 17.5501C62.6123 16.3861 62.571 15.4533 62.4884 14.7516C62.4058 14.0499 62.2076 13.4143 61.902 12.8364C61.5964 12.2585 61.1339 11.8623 60.5227 11.6477C59.9116 11.433 59.0939 11.3257 58.0615 11.3257H55.2452V24.9137H58.0615C59.606 24.9137 60.7292 24.5257 61.4312 23.7415C62.0424 23.1058 62.4141 21.9501 62.5545 20.2826Z" fill="white"/>
  <path d="M74.5059 24.7155C74.9931 25.1365 75.6869 25.3512 76.5954 25.3512C78.5115 25.3512 80.2211 25.2934 81.7243 25.1696L82.5915 25.0788L82.6493 28.1332C80.2789 28.711 78.1398 29 76.2237 29C73.8947 29 72.2098 28.3808 71.1527 27.1425C70.0955 25.9043 69.5752 23.8983 69.5752 21.1163C69.5752 15.5771 71.8547 12.8033 76.4054 12.8033C80.8984 12.8033 83.1448 15.1313 83.1448 19.7872L82.8393 22.66H73.7543C73.7625 23.6093 74.0186 24.2945 74.5059 24.7155ZM79.0649 19.5148C79.0649 18.2765 78.8666 17.418 78.4785 16.9392C78.0903 16.4521 77.4048 16.2127 76.422 16.2127C75.4391 16.2127 74.7536 16.4686 74.3489 16.9722C73.9442 17.4758 73.7378 18.326 73.713 19.523H79.0649V19.5148Z" fill="white"/>
  <path d="M86.4814 28.6285V7.61914H99.8942V11.3257H90.7431V17.5006H98.2259V21.2071H90.7431V28.6285H86.4814Z" fill="white"/>
  <path d="M102.521 11.2019V7H106.658V11.2019H102.521ZM102.521 28.6285V13.1749H106.658V28.6285H102.521Z" fill="white"/>
  <path d="M110.49 28.6285V13.1748H114.603V14.8093C116.338 13.7775 117.981 13.1088 119.55 12.8033V16.9722C117.882 17.3189 116.445 17.6821 115.256 18.0536L114.636 18.2683V28.6285H110.49Z" fill="white"/>
  <path d="M126.149 24.7155C126.637 25.1365 127.33 25.3512 128.239 25.3512C130.155 25.3512 131.865 25.2934 133.368 25.1696L134.235 25.0788L134.293 28.1332C131.923 28.711 129.783 29 127.867 29C125.538 29 123.853 28.3808 122.796 27.1425C121.739 25.9043 121.219 23.8983 121.219 21.1163C121.219 15.5771 123.498 12.8033 128.049 12.8033C132.542 12.8033 134.788 15.1313 134.788 19.7872L134.483 22.66H125.398C125.414 23.6093 125.662 24.2945 126.149 24.7155ZM130.708 19.5148C130.708 18.2765 130.51 17.418 130.122 16.9392C129.734 16.4521 129.048 16.2127 128.066 16.2127C127.083 16.2127 126.397 16.4686 125.993 16.9722C125.588 17.4758 125.381 18.326 125.357 19.523H130.708V19.5148Z" fill="white"/>
  <path d="M140.693 7.61914L144.592 15.346L148.581 7.61914H152.999L146.946 18.3426L152.999 28.6285H148.267L144.369 21.3722L140.38 28.6285H135.961L142.015 18.5572L135.961 7.61914H140.693Z" fill="white"/>
  <path d="M53.7496 36.3854C52.77 36.3854 52.2843 36.7317 52.2843 37.4161C52.2843 37.7707 52.3995 38.0263 52.63 38.1747C52.8605 38.3231 53.3709 38.5128 54.1613 38.7272C54.9516 38.9498 55.5114 39.2055 55.8324 39.5106C56.1535 39.8157 56.3182 40.2939 56.3182 40.9536C56.3182 41.7864 56.0794 42.4131 55.6102 42.8254C55.1327 43.2377 54.4906 43.4438 53.6755 43.4438C53.0169 43.4438 52.2925 43.3696 51.5022 43.213L51.0823 43.1305L51.2058 42.0998C52.2431 42.2399 53.0416 42.3059 53.585 42.3059C54.54 42.3059 55.0174 41.8854 55.0174 41.036C55.0174 40.7062 54.9104 40.4588 54.6964 40.3022C54.4823 40.1455 53.9966 39.9723 53.2392 39.7827C52.4818 39.593 51.922 39.3291 51.5516 38.9993C51.1811 38.6695 51 38.1417 51 37.4243C51 36.707 51.2305 36.1627 51.6998 35.7999C52.169 35.4371 52.8111 35.2474 53.6344 35.2474C54.2271 35.2474 54.9269 35.3134 55.7337 35.4536L56.137 35.5195L56.03 36.5585C54.9516 36.4513 54.1942 36.3854 53.7496 36.3854Z" fill="white"/>
  <path d="M62.4595 39.3126V41.9513C62.4677 42.1244 62.5089 42.2481 62.5912 42.3306C62.6735 42.413 62.797 42.4625 62.9699 42.4872L62.937 43.452C62.2784 43.452 61.7597 43.3118 61.3975 43.0232C60.7801 43.3118 60.1626 43.452 59.537 43.452C58.3927 43.452 57.8164 42.8418 57.8164 41.6132C57.8164 41.0277 57.9728 40.5989 58.2857 40.3433C58.5985 40.0794 59.076 39.9228 59.7263 39.865L61.2164 39.7414V39.3208C61.2164 39.0157 61.1505 38.7931 61.0106 38.6694C60.8789 38.5457 60.6813 38.488 60.4179 38.488C59.9239 38.488 59.3065 38.521 58.5656 38.5787L58.1951 38.6034L58.1457 37.7129C58.9854 37.515 59.7593 37.416 60.459 37.416C61.1588 37.416 61.6692 37.5644 61.982 37.8695C62.3031 38.1664 62.4595 38.6529 62.4595 39.3126ZM59.8745 40.7474C59.3394 40.7968 59.076 41.0854 59.076 41.6132C59.076 42.1492 59.3147 42.413 59.784 42.413C60.1709 42.413 60.5743 42.3553 61.0106 42.2316L61.2164 42.1656V40.6237L59.8745 40.7474Z" fill="white"/>
  <path d="M66.1887 38.6117V43.3201H64.9373V38.6117H64.2705V37.5315H64.9373V37.1604C64.9373 36.3358 65.0526 35.7669 65.2996 35.4618C65.5383 35.1567 65.9582 35 66.5674 35L67.8187 35.1154L67.8105 36.1462C67.4318 36.1297 67.1189 36.1214 66.872 36.1214C66.625 36.1214 66.4439 36.1957 66.3451 36.3441C66.2463 36.4925 66.1969 36.7729 66.1969 37.1687V37.5315H67.7199V38.6117H66.1887Z" fill="white"/>
  <path d="M73.359 42.2811L73.6801 42.2482L73.7048 43.1882C72.8239 43.3696 72.0501 43.4521 71.3668 43.4521C70.5106 43.4521 69.8932 43.2129 69.5227 42.7429C69.1522 42.2729 68.9629 41.5225 68.9629 40.4835C68.9629 38.4303 69.8026 37.4078 71.4738 37.4078C73.0956 37.4078 73.9023 38.2901 73.9023 40.0548L73.82 40.9618H70.2389C70.2471 41.4401 70.3542 41.7946 70.5517 42.0173C70.7493 42.2399 71.128 42.3554 71.6714 42.3554C72.2147 42.3471 72.7827 42.3224 73.359 42.2811ZM72.6592 39.9888C72.6592 39.4198 72.5687 39.0158 72.3876 38.7931C72.2065 38.5623 71.9019 38.4551 71.4655 38.4551C71.0375 38.4551 70.7164 38.5787 70.5271 38.8179C70.3295 39.057 70.2307 39.4528 70.2225 39.997H72.6592V39.9888Z" fill="white"/>
  <path d="M81.9867 43.3201H80.6942V40.0547L78.208 35.3876H79.6487L81.3281 38.7931L83.0158 35.3876H84.4483L81.9867 40.0547V43.3201Z" fill="white"/>
  <path d="M85.9053 36.5493V35.2217H87.1648V36.5493H85.9053ZM85.9053 43.3191V37.5305H87.1648V43.3191H85.9053Z" fill="white"/>
  <path d="M93.4381 42.2811L93.7592 42.2482L93.7839 43.1882C92.903 43.3696 92.1292 43.4521 91.4459 43.4521C90.5897 43.4521 89.9723 43.2129 89.6018 42.7429C89.2313 42.2729 89.042 41.5225 89.042 40.4835C89.042 38.4303 89.8817 37.4078 91.5529 37.4078C93.1747 37.4078 93.9815 38.2901 93.9815 40.0548L93.8991 40.9618H90.318C90.3263 41.4401 90.4333 41.7946 90.6309 42.0173C90.8284 42.2399 91.2071 42.3554 91.7505 42.3554C92.302 42.3471 92.8618 42.3224 93.4381 42.2811ZM92.7466 39.9888C92.7466 39.4198 92.656 39.0158 92.4749 38.7931C92.2938 38.5623 91.9892 38.4551 91.5529 38.4551C91.1248 38.4551 90.8037 38.5787 90.6144 38.8179C90.4168 39.057 90.318 39.4528 90.3098 39.997H92.7466V39.9888Z" fill="white"/>
  <path d="M95.8994 43.3196V35.1232H97.1589V43.3196H95.8994Z" fill="white"/>
  <path d="M104.108 35.1232V43.3196H102.856V43.0227C102.296 43.3113 101.778 43.4515 101.309 43.4515C100.551 43.4515 99.9996 43.2206 99.6538 42.7671C99.2998 42.3136 99.127 41.5467 99.127 40.4747C99.127 39.4028 99.3245 38.6194 99.7115 38.1329C100.098 37.6464 100.708 37.4073 101.531 37.4073C101.811 37.4073 102.247 37.4568 102.848 37.5557V35.1232H104.108ZM102.65 42.1157L102.848 42.0332V38.6029C102.387 38.5287 101.959 38.4875 101.564 38.4875C100.782 38.4875 100.395 39.1389 100.395 40.4335C100.395 41.1427 100.485 41.6374 100.666 41.9095C100.848 42.1816 101.136 42.3218 101.531 42.3218C101.926 42.3218 102.296 42.2558 102.65 42.1157Z" fill="white"/>
  <path d="M109.599 43.3201V35.3876H114.513V36.509H110.883V39.1807H113.896V40.3021H110.883V43.3119H109.599V43.3201Z" fill="white"/>
  <path d="M120.194 39.3126V41.9513C120.202 42.1244 120.243 42.2481 120.326 42.3306C120.408 42.413 120.531 42.4625 120.704 42.4872L120.671 43.452C120.013 43.452 119.494 43.3118 119.132 43.0232C118.514 43.3118 117.897 43.452 117.271 43.452C116.127 43.452 115.551 42.8418 115.551 41.6132C115.551 41.0277 115.707 40.5989 116.02 40.3433C116.333 40.0794 116.81 39.9228 117.461 39.865L118.951 39.7414V39.3208C118.951 39.0157 118.885 38.7931 118.745 38.6694C118.613 38.5457 118.416 38.488 118.152 38.488C117.658 38.488 117.041 38.521 116.3 38.5787L115.929 38.6034L115.88 37.7129C116.72 37.515 117.494 37.416 118.193 37.416C118.901 37.416 119.404 37.5644 119.716 37.8695C120.037 38.1664 120.194 38.6529 120.194 39.3126ZM117.609 40.7474C117.074 40.7968 116.81 41.0854 116.81 41.6132C116.81 42.1492 117.049 42.413 117.518 42.413C117.905 42.413 118.309 42.3553 118.745 42.2316L118.951 42.1656V40.6237L117.609 40.7474Z" fill="white"/>
  <path d="M122.416 43.3201V37.5315H123.667V38.2241C124.326 37.8036 124.976 37.5232 125.635 37.3995V38.6694C124.976 38.8013 124.408 38.9663 123.939 39.1806L123.684 39.2878V43.3283H122.416V43.3201Z" fill="white"/>
  <path d="M128.484 43.3201H127.225V37.5315H128.476V37.8943C129.019 37.5728 129.521 37.4078 129.974 37.4078C130.641 37.4078 131.135 37.5975 131.44 37.9768C132.139 37.5975 132.839 37.4078 133.531 37.4078C134.222 37.4078 134.716 37.6222 134.996 38.051C135.284 38.4798 135.424 39.2054 135.424 40.2197V43.3201H134.173V40.2527C134.173 39.626 134.107 39.1807 133.983 38.9251C133.86 38.6612 133.588 38.5293 133.193 38.5293C132.847 38.5293 132.469 38.6035 132.073 38.7602L131.876 38.8426C131.934 38.9993 131.966 39.494 131.966 40.3269V43.3284H130.715V40.3516C130.715 39.6672 130.649 39.1889 130.534 38.9251C130.411 38.6612 130.139 38.5293 129.727 38.5293C129.34 38.5293 128.986 38.6035 128.649 38.7602L128.476 38.8261V43.3201H128.484Z" fill="white"/>
  <path d="M137.539 36.5493V35.2217H138.799V36.5493H137.539ZM137.539 43.3191V37.5305H138.799V43.3191H137.539Z" fill="white"/>
  <path d="M142.223 43.3201H140.964V37.5315H142.215V37.8943C142.775 37.5728 143.31 37.4078 143.812 37.4078C144.586 37.4078 145.105 37.6222 145.393 38.0593C145.673 38.4963 145.813 39.2137 145.813 40.2197V43.3201H144.561V40.2527C144.561 39.626 144.496 39.1807 144.356 38.9251C144.224 38.6612 143.944 38.5293 143.532 38.5293C143.137 38.5293 142.759 38.6035 142.396 38.7602L142.223 38.8261V43.3201Z" fill="white"/>
  <path d="M152.959 44.1035C152.959 45.3651 152.045 46 150.218 46C149.337 46 148.687 45.8763 148.267 45.6372C147.847 45.3981 147.633 44.9611 147.633 44.3261C147.633 44.0375 147.699 43.7984 147.839 43.5922C147.979 43.3861 148.201 43.1635 148.505 42.9243C148.25 42.7512 148.127 42.4708 148.127 42.0832C148.127 41.9266 148.234 41.6792 148.44 41.3329L148.547 41.1597C147.995 40.8299 147.715 40.2527 147.715 39.4198C147.715 38.7272 147.921 38.2159 148.341 37.8943C148.761 37.5728 149.32 37.4078 150.028 37.4078C150.366 37.4078 150.704 37.4491 151.033 37.5233L151.206 37.5563L153 37.5068V38.5293L152.037 38.4716C152.243 38.7437 152.35 39.057 152.35 39.4198C152.35 40.1785 152.161 40.6979 151.782 40.9865C151.403 41.2752 150.802 41.4236 149.996 41.4236C149.798 41.4236 149.625 41.4071 149.485 41.3741C149.378 41.638 149.32 41.8359 149.32 41.9843C149.32 42.1245 149.395 42.2234 149.535 42.2811C149.674 42.3389 150.02 42.3636 150.572 42.3719C151.486 42.3801 152.12 42.5038 152.457 42.7429C152.786 42.9903 152.959 43.4438 152.959 44.1035ZM148.868 44.2272C148.868 44.4993 148.975 44.6889 149.189 44.8044C149.403 44.9198 149.773 44.9775 150.3 44.9775C151.23 44.9775 151.7 44.7137 151.7 44.1777C151.7 43.8808 151.617 43.6829 151.453 43.6087C151.288 43.5263 150.959 43.485 150.465 43.4768L149.329 43.4108C149.156 43.551 149.041 43.6829 148.966 43.7984C148.901 43.9056 148.868 44.054 148.868 44.2272ZM149.213 40.2114C149.386 40.3764 149.658 40.4588 150.037 40.4588C150.415 40.4588 150.687 40.3764 150.852 40.2114C151.016 40.0465 151.099 39.7826 151.099 39.4281C151.099 39.0735 151.016 38.8096 150.844 38.6447C150.671 38.4798 150.399 38.3973 150.02 38.3973C149.312 38.3973 148.958 38.7437 148.958 39.4281C148.958 39.7826 149.041 40.0465 149.213 40.2114Z" fill="white"/>
  <path d="M159.606 10.3343V14H158V3.12879C158 2.16761 158.294 1.41193 158.875 0.848485C159.449 0.285038 160.249 0 161.233 0C162.184 0 162.915 0.225379 163.462 0.662879C164.002 1.11364 164.269 1.73674 164.269 2.52557C164.269 3.06913 164.091 3.57955 163.735 4.05019C163.38 4.52083 162.922 4.84564 162.354 5.02462V5.05114C163.209 5.18371 163.872 5.48201 164.323 5.96591C164.774 6.43655 165 7.03977 165 7.7822C165 8.6572 164.686 9.37311 164.063 9.92329C163.435 10.4735 162.614 10.7453 161.589 10.7453C160.864 10.7453 160.201 10.6061 159.606 10.3343ZM160.625 5.80019V4.52746C161.22 4.45455 161.705 4.24242 162.095 3.88447C162.478 3.51989 162.669 3.11553 162.669 2.65152C162.669 1.73674 162.184 1.27273 161.227 1.27273C160.707 1.27273 160.304 1.43182 160.023 1.75663C159.743 2.08144 159.606 2.5322 159.606 3.12216V8.94886C160.229 9.30019 160.837 9.47254 161.425 9.47254C161.999 9.47254 162.45 9.3267 162.771 9.04167C163.093 8.75 163.25 8.33902 163.25 7.81534C163.25 6.62879 162.375 5.96591 160.625 5.80019Z" fill="#F4F4F6"/>
</svg>
